<mxfile host="app.diagrams.net" modified="2021-09-12T23:59:39.925Z" agent="5.0 (Macintosh)" etag="H5pn-ZSUY0vOZ83vRKSM" version="15.1.0" type="github">
  <diagram id="tIkzukC-OCRGZSHh6Kfc" name="Page-1">
    <mxGraphModel dx="1678" dy="965" grid="1" gridSize="10" guides="1" tooltips="1" connect="1" arrows="1" fold="1" page="1" pageScale="1" pageWidth="827" pageHeight="1169" math="0" shadow="0">
      <root>
        <mxCell id="0" />
        <mxCell id="1" parent="0" />
        <mxCell id="o_r1sFH0NP4sAo5vpepX-20" value="&lt;h1 style=&quot;font-size: 19px&quot;&gt;New Rulebook&lt;span style=&quot;font-weight: normal&quot;&gt;&lt;/span&gt;:&lt;br&gt;&lt;/h1&gt;&lt;ol style=&quot;font-size: 17px&quot;&gt;&lt;li&gt;(Add/Remove) Store Change in offset&lt;br&gt;&lt;/li&gt;&lt;li&gt;(Add/Remove) Apply previous slot change to self&lt;/li&gt;&lt;/ol&gt;&lt;ol style=&quot;font-size: 17px&quot;&gt;&lt;li&gt;(Add) if special then offset override +&lt;/li&gt;&lt;li&gt;(Remove) if x == 2 then offset override 0&lt;/li&gt;&lt;/ol&gt;&lt;ol style=&quot;font-size: 17px&quot;&gt;&lt;li&gt;?&lt;br&gt;&lt;/li&gt;&lt;/ol&gt;" style="text;html=1;strokeColor=none;fillColor=none;spacing=5;spacingTop=-20;whiteSpace=wrap;overflow=hidden;rounded=0;" parent="1" vertex="1">
          <mxGeometry x="340" y="10" width="468" height="190" as="geometry" />
        </mxCell>
        <mxCell id="o_r1sFH0NP4sAo5vpepX-21" value="" style="rounded=0;whiteSpace=wrap;html=1;fillColor=none;strokeWidth=5;opacity=50;" parent="1" vertex="1">
          <mxGeometry x="40" y="240" width="1240" height="80" as="geometry" />
        </mxCell>
        <mxCell id="o_r1sFH0NP4sAo5vpepX-22" value="0 (0)" style="rounded=0;whiteSpace=wrap;html=1;" parent="1" vertex="1">
          <mxGeometry x="50" y="260" width="120" height="40" as="geometry" />
        </mxCell>
        <mxCell id="o_r1sFH0NP4sAo5vpepX-23" value="0 (0)" style="rounded=0;whiteSpace=wrap;html=1;" parent="1" vertex="1">
          <mxGeometry x="50" y="310" width="120" height="40" as="geometry" />
        </mxCell>
        <mxCell id="o_r1sFH0NP4sAo5vpepX-24" value="+ (0)" style="rounded=0;whiteSpace=wrap;html=1;" parent="1" vertex="1">
          <mxGeometry x="70" y="360" width="100" height="60" as="geometry" />
        </mxCell>
        <mxCell id="o_r1sFH0NP4sAo5vpepX-25" value="+ (0)" style="rounded=0;whiteSpace=wrap;html=1;" parent="1" vertex="1">
          <mxGeometry x="50" y="430" width="120" height="40" as="geometry" />
        </mxCell>
        <mxCell id="o_r1sFH0NP4sAo5vpepX-26" value="0 (0)" style="rounded=0;whiteSpace=wrap;html=1;" parent="1" vertex="1">
          <mxGeometry x="50" y="480" width="120" height="40" as="geometry" />
        </mxCell>
        <mxCell id="o_r1sFH0NP4sAo5vpepX-29" value="&lt;div&gt;2&lt;/div&gt;&lt;div&gt;&lt;br&gt;&lt;/div&gt;&lt;div&gt;&lt;br&gt;&lt;/div&gt;&lt;div&gt;&lt;br&gt;&lt;/div&gt;&lt;div&gt;&lt;br&gt;&lt;/div&gt;&lt;div&gt;3&lt;/div&gt;&lt;div&gt;&lt;br&gt;&lt;/div&gt;&lt;div&gt;&lt;br&gt;&lt;/div&gt;&lt;div&gt;&lt;br&gt;&lt;/div&gt;&lt;div&gt;4&lt;/div&gt;&lt;div&gt;&lt;br&gt;&lt;/div&gt;&lt;div&gt;&lt;br&gt;&lt;/div&gt;&lt;div&gt;&lt;br&gt;&lt;/div&gt;&lt;div&gt;5&lt;br&gt;&lt;/div&gt;" style="text;html=1;strokeColor=none;fillColor=none;align=center;verticalAlign=top;whiteSpace=wrap;rounded=0;" parent="1" vertex="1">
          <mxGeometry x="185" y="260" width="40" height="260" as="geometry" />
        </mxCell>
        <mxCell id="o_r1sFH0NP4sAo5vpepX-30" value="0 (0)" style="rounded=0;whiteSpace=wrap;html=1;" parent="1" vertex="1">
          <mxGeometry x="230" y="260" width="120" height="40" as="geometry" />
        </mxCell>
        <mxCell id="o_r1sFH0NP4sAo5vpepX-31" value="+ (0)" style="rounded=0;whiteSpace=wrap;html=1;" parent="1" vertex="1">
          <mxGeometry x="250" y="310" width="100" height="60" as="geometry" />
        </mxCell>
        <mxCell id="o_r1sFH0NP4sAo5vpepX-32" value="+ (0)" style="rounded=0;whiteSpace=wrap;html=1;" parent="1" vertex="1">
          <mxGeometry x="230" y="380" width="120" height="40" as="geometry" />
        </mxCell>
        <mxCell id="o_r1sFH0NP4sAo5vpepX-33" value="0 (0)" style="rounded=0;whiteSpace=wrap;html=1;" parent="1" vertex="1">
          <mxGeometry x="230" y="430" width="120" height="40" as="geometry" />
        </mxCell>
        <mxCell id="o_r1sFH0NP4sAo5vpepX-34" value="&lt;div&gt;2&lt;/div&gt;&lt;div&gt;&lt;br&gt;&lt;/div&gt;&lt;div&gt;&lt;br&gt;&lt;/div&gt;&lt;div&gt;&lt;br&gt;&lt;/div&gt;&lt;div&gt;&lt;br&gt;&lt;/div&gt;&lt;div&gt;3&lt;/div&gt;&lt;div&gt;&lt;br&gt;&lt;/div&gt;&lt;div&gt;&lt;br&gt;&lt;/div&gt;&lt;div&gt;&lt;br&gt;&lt;/div&gt;&lt;div&gt;4&lt;/div&gt;&lt;div&gt;&lt;br&gt;&lt;/div&gt;&lt;div&gt;&lt;br&gt;&lt;/div&gt;&lt;div&gt;&lt;br&gt;&lt;/div&gt;&lt;div&gt;5&lt;br&gt;&lt;/div&gt;" style="text;html=1;strokeColor=none;fillColor=none;align=center;verticalAlign=top;whiteSpace=wrap;rounded=0;" parent="1" vertex="1">
          <mxGeometry x="370" y="260" width="40" height="260" as="geometry" />
        </mxCell>
        <mxCell id="o_r1sFH0NP4sAo5vpepX-36" value="0 (-)" style="rounded=0;whiteSpace=wrap;html=1;" parent="1" vertex="1">
          <mxGeometry x="435" y="250" width="100" height="60" as="geometry" />
        </mxCell>
        <mxCell id="o_r1sFH0NP4sAo5vpepX-37" value="0 (-)" style="rounded=0;whiteSpace=wrap;html=1;" parent="1" vertex="1">
          <mxGeometry x="415" y="320" width="120" height="40" as="geometry" />
        </mxCell>
        <mxCell id="o_r1sFH0NP4sAo5vpepX-38" value="- (-)" style="rounded=0;whiteSpace=wrap;html=1;" parent="1" vertex="1">
          <mxGeometry x="415" y="370" width="120" height="40" as="geometry" />
        </mxCell>
        <mxCell id="o_r1sFH0NP4sAo5vpepX-39" value="&lt;div&gt;2&lt;/div&gt;&lt;div&gt;&lt;br&gt;&lt;/div&gt;&lt;div&gt;&lt;br&gt;&lt;/div&gt;&lt;div&gt;&lt;br&gt;&lt;/div&gt;&lt;div&gt;&lt;br&gt;&lt;/div&gt;&lt;div&gt;3&lt;/div&gt;&lt;div&gt;&lt;br&gt;&lt;/div&gt;&lt;div&gt;&lt;br&gt;&lt;/div&gt;&lt;div&gt;&lt;br&gt;&lt;/div&gt;&lt;div&gt;4&lt;/div&gt;&lt;div&gt;&lt;br&gt;&lt;/div&gt;&lt;div&gt;&lt;br&gt;&lt;/div&gt;&lt;div&gt;&lt;br&gt;&lt;/div&gt;&lt;div&gt;5&lt;br&gt;&lt;/div&gt;" style="text;html=1;strokeColor=none;fillColor=none;align=center;verticalAlign=top;whiteSpace=wrap;rounded=0;" parent="1" vertex="1">
          <mxGeometry x="560" y="260" width="40" height="260" as="geometry" />
        </mxCell>
        <mxCell id="o_r1sFH0NP4sAo5vpepX-41" value="0 (0)" style="rounded=0;whiteSpace=wrap;html=1;" parent="1" vertex="1">
          <mxGeometry x="600" y="260" width="120" height="40" as="geometry" />
        </mxCell>
        <mxCell id="o_r1sFH0NP4sAo5vpepX-42" value="- (0)" style="rounded=0;whiteSpace=wrap;html=1;" parent="1" vertex="1">
          <mxGeometry x="600" y="310" width="120" height="40" as="geometry" />
        </mxCell>
        <mxCell id="qSfscdUOPGKa_6ocBNE0-9" value="0 (+)" style="rounded=0;whiteSpace=wrap;html=1;" parent="1" vertex="1">
          <mxGeometry x="750" y="260" width="120" height="40" as="geometry" />
        </mxCell>
        <mxCell id="qSfscdUOPGKa_6ocBNE0-10" value="0 (+0.025)" style="rounded=0;whiteSpace=wrap;html=1;" parent="1" vertex="1">
          <mxGeometry x="750" y="310" width="120" height="40" as="geometry" />
        </mxCell>
        <mxCell id="qSfscdUOPGKa_6ocBNE0-12" value="0 (-)" style="rounded=0;whiteSpace=wrap;html=1;" parent="1" vertex="1">
          <mxGeometry x="600" y="360" width="120" height="40" as="geometry" />
        </mxCell>
        <mxCell id="qSfscdUOPGKa_6ocBNE0-24" value="" style="rounded=0;whiteSpace=wrap;html=1;" parent="1" vertex="1">
          <mxGeometry x="881" y="260" width="120" height="40" as="geometry" />
        </mxCell>
        <mxCell id="qSfscdUOPGKa_6ocBNE0-25" value="" style="rounded=0;whiteSpace=wrap;html=1;fillColor=none;strokeWidth=5;opacity=50;" parent="1" vertex="1">
          <mxGeometry x="1310" y="240" width="790" height="80" as="geometry" />
        </mxCell>
        <mxCell id="qSfscdUOPGKa_6ocBNE0-26" value="0 (0)" style="rounded=0;whiteSpace=wrap;html=1;" parent="1" vertex="1">
          <mxGeometry x="1320" y="260" width="120" height="40" as="geometry" />
        </mxCell>
        <mxCell id="qSfscdUOPGKa_6ocBNE0-29" value="- (0)" style="rounded=0;whiteSpace=wrap;html=1;" parent="1" vertex="1">
          <mxGeometry x="1320" y="310" width="120" height="40" as="geometry" />
        </mxCell>
        <mxCell id="qSfscdUOPGKa_6ocBNE0-30" value="0 (NEW, 0)" style="rounded=0;whiteSpace=wrap;html=1;" parent="1" vertex="1">
          <mxGeometry x="1320" y="360" width="120" height="40" as="geometry" />
        </mxCell>
        <mxCell id="qSfscdUOPGKa_6ocBNE0-31" value="&lt;font style=&quot;font-size: 17px&quot;&gt;&lt;b&gt;Doesn&#39;t follow rulebook&lt;/b&gt;&lt;/font&gt;" style="text;html=1;strokeColor=none;fillColor=none;align=left;verticalAlign=bottom;whiteSpace=wrap;rounded=0;opacity=50;" parent="1" vertex="1">
          <mxGeometry x="1320" y="190" width="310" height="40" as="geometry" />
        </mxCell>
        <mxCell id="qSfscdUOPGKa_6ocBNE0-32" value="&lt;div&gt;2&lt;/div&gt;&lt;div&gt;&lt;br&gt;&lt;/div&gt;&lt;div&gt;&lt;br&gt;&lt;/div&gt;&lt;div&gt;&lt;br&gt;&lt;/div&gt;&lt;div&gt;&lt;br&gt;&lt;/div&gt;&lt;div&gt;3&lt;/div&gt;&lt;div&gt;&lt;br&gt;&lt;/div&gt;&lt;div&gt;&lt;br&gt;&lt;/div&gt;&lt;div&gt;&lt;br&gt;&lt;/div&gt;&lt;div&gt;4&lt;/div&gt;&lt;div&gt;&lt;br&gt;&lt;/div&gt;&lt;div&gt;&lt;br&gt;&lt;/div&gt;&lt;div&gt;&lt;br&gt;&lt;/div&gt;&lt;div&gt;5&lt;br&gt;&lt;/div&gt;" style="text;html=1;strokeColor=none;fillColor=none;align=center;verticalAlign=top;whiteSpace=wrap;rounded=0;" parent="1" vertex="1">
          <mxGeometry x="1455" y="260" width="40" height="260" as="geometry" />
        </mxCell>
        <mxCell id="qSfscdUOPGKa_6ocBNE0-53" value="0 (+)" style="rounded=0;whiteSpace=wrap;html=1;" parent="1" vertex="1">
          <mxGeometry x="1495" y="260" width="120" height="40" as="geometry" />
        </mxCell>
        <mxCell id="qSfscdUOPGKa_6ocBNE0-54" value="- (0)" style="rounded=0;whiteSpace=wrap;html=1;" parent="1" vertex="1">
          <mxGeometry x="1495" y="310" width="120" height="40" as="geometry" />
        </mxCell>
        <mxCell id="qSfscdUOPGKa_6ocBNE0-55" value="" style="curved=1;endArrow=classic;html=1;strokeWidth=2;" parent="1" edge="1">
          <mxGeometry width="50" height="50" relative="1" as="geometry">
            <mxPoint x="750" y="180" as="sourcePoint" />
            <mxPoint x="1560" y="360" as="targetPoint" />
            <Array as="points">
              <mxPoint x="1150" y="180" />
              <mxPoint x="1260" y="180" />
              <mxPoint x="1260" y="370" />
              <mxPoint x="1280" y="430" />
              <mxPoint x="1430" y="430" />
              <mxPoint x="1560" y="430" />
            </Array>
          </mxGeometry>
        </mxCell>
      </root>
    </mxGraphModel>
  </diagram>
</mxfile>
